<?xml version="1.0" standalone="no"?>
<!DOCTYPE svg PUBLIC "-//W3C//DTD SVG 20010904//EN"
 "http://www.w3.org/TR/2001/REC-SVG-20010904/DTD/svg10.dtd">
<svg version="1.0" xmlns="http://www.w3.org/2000/svg"
 width="994.000000pt" height="802.000000pt" viewBox="0 0 994.000000 802.000000"
 preserveAspectRatio="xMidYMid meet">

<g transform="translate(0.000000,802.000000) scale(0.100000,-0.100000)"
fill="#000000" stroke="none">
<path d="M6112 7329 l3 -400 168 -2 167 -2 0 403 0 402 -170 0 -170 0 2 -401z"/>
<path d="M6175 6715 c-5 -1 -37 -8 -70 -15 -75 -16 -205 -77 -268 -125 -64
-49 -145 -149 -185 -227 -48 -96 -65 -176 -65 -303 1 -134 28 -227 104 -353
l50 -83 -21 -47 c-12 -26 -26 -56 -30 -67 -5 -11 -21 -47 -36 -80 -14 -33 -32
-76 -39 -95 -11 -32 -114 -279 -135 -325 -5 -11 -30 -74 -56 -140 -26 -66 -55
-140 -66 -165 -10 -25 -23 -54 -28 -65 -4 -11 -25 -60 -45 -110 -20 -49 -40
-99 -45 -110 -5 -11 -18 -42 -30 -70 -11 -27 -25 -58 -30 -67 -6 -10 -10 -23
-10 -29 0 -6 -6 -25 -14 -42 -8 -18 -24 -54 -36 -82 -12 -27 -25 -59 -30 -70
-5 -11 -18 -42 -30 -70 -11 -27 -25 -58 -31 -68 -6 -11 -9 -20 -7 -22 5 -5
192 -75 201 -75 5 0 23 -7 40 -14 70 -32 209 -87 213 -84 1 2 20 37 41 78 l38
75 293 3 292 2 0 -80 0 -80 95 0 95 0 0 80 0 80 345 0 345 0 46 -97 c25 -54
62 -132 81 -173 49 -104 131 -276 223 -465 43 -88 90 -187 105 -220 28 -62 90
-192 178 -375 l51 -105 -3 -96 c-2 -94 -2 -99 36 -174 21 -43 54 -97 75 -119
35 -41 163 -116 197 -116 16 0 97 -151 221 -415 29 -60 80 -168 115 -240 34
-71 71 -150 83 -175 48 -104 114 -244 175 -370 35 -74 80 -169 100 -211 31
-69 38 -78 68 -84 19 -4 60 -18 92 -30 31 -13 57 -23 57 -21 0 3 -206 476
-249 571 -10 22 -35 81 -56 130 -21 50 -51 119 -68 155 -16 36 -54 121 -84
190 -61 139 -68 156 -112 253 -17 38 -31 71 -31 73 0 3 -9 24 -20 48 -65 144
-97 226 -90 231 5 3 16 39 25 81 15 66 16 82 4 137 -21 93 -82 192 -157 252
-34 28 -69 64 -78 80 -20 38 -98 230 -130 317 -13 37 -34 91 -47 120 -13 29
-30 69 -37 88 -13 35 -75 188 -91 225 -17 40 -142 352 -170 425 -16 41 -34 84
-39 95 -5 11 -25 63 -45 115 -20 52 -40 104 -45 115 -12 26 -89 220 -105 265
-8 19 -23 58 -35 85 -29 65 -144 349 -182 445 -15 41 -35 89 -42 105 -20 44
-28 63 -166 400 -34 83 -68 163 -76 178 -13 27 -12 31 20 72 143 189 175 464
77 679 -57 126 -129 210 -247 288 -83 56 -145 81 -247 102 -67 14 -193 20
-222 11z m220 -337 c94 -36 154 -93 198 -187 62 -132 33 -281 -76 -389 -86
-84 -192 -121 -300 -103 -128 22 -229 96 -284 209 -23 49 -27 70 -28 147 0 80
3 96 28 143 58 111 143 174 262 197 73 14 133 9 200 -17z m-56 -1090 c10 -24
64 -135 119 -248 55 -113 113 -234 130 -270 17 -36 67 -141 112 -235 45 -93
95 -197 110 -230 15 -33 51 -107 79 -164 28 -57 49 -106 47 -110 -6 -9 -481
-14 -550 -6 l-56 7 0 79 0 79 -95 0 -95 0 -2 -147 c-1 -82 -3 -120 -5 -85 l-4
62 -157 1 c-205 2 -333 7 -340 13 -5 6 3 25 53 141 13 28 41 95 65 150 23 55
59 137 81 183 21 46 39 86 39 89 0 3 20 48 45 100 25 51 45 96 45 99 0 6 15
40 80 179 23 50 50 110 60 135 10 25 37 84 59 133 l42 87 60 0 60 0 18 -42z
m-131 -1297 c-9 -15 -15 -17 -25 -9 -20 16 -15 28 12 28 22 0 24 -2 13 -19z
m62 15 c0 -11 -19 -15 -25 -6 -3 5 1 10 9 10 9 0 16 -2 16 -4z"/>
<path d="M3358 5350 c2 -719 0 -900 -10 -900 -7 0 -24 9 -38 20 -14 11 -28 20
-32 20 -4 0 -42 21 -85 46 -81 49 -255 149 -333 192 l-45 24 -100 -61 c-95
-59 -364 -226 -597 -370 -58 -36 -154 -95 -212 -131 l-106 -65 -1 -200 c-1
-110 -5 -760 -9 -1445 -7 -1080 -10 -1254 -23 -1310 -34 -137 -71 -207 -140
-264 -60 -49 -119 -73 -205 -81 -40 -4 -72 -9 -70 -11 2 -2 46 -10 98 -19 385
-65 764 -95 1177 -95 l283 0 2 1900 3 1900 45 -25 c25 -14 88 -47 140 -74 178
-90 455 -238 502 -267 20 -13 48 -26 62 -30 14 -3 26 -10 26 -15 0 -5 5 -9 11
-9 12 0 100 -41 109 -50 3 -3 18 -14 34 -24 l29 -18 -5 -1616 -5 -1615 78 6
c43 4 106 11 141 16 35 6 124 18 198 27 74 8 167 20 205 25 39 5 121 16 184
25 63 8 117 16 120 18 6 4 7 1167 3 3328 l-2 1167 -57 38 c-32 20 -67 42 -78
49 -11 6 -42 24 -70 39 -27 15 -52 31 -55 35 -3 3 -45 30 -95 59 -49 29 -97
56 -105 61 -8 5 -53 32 -100 60 -113 68 -103 62 -200 122 -47 29 -113 71 -147
95 -34 23 -79 51 -100 63 -21 11 -50 28 -64 38 -15 9 -69 43 -120 75 -52 32
-125 79 -164 103 -38 24 -72 44 -75 44 -3 0 -4 -405 -2 -900z m601 -561 c53
-28 134 -73 181 -99 47 -27 139 -77 205 -112 l120 -63 -1 -355 c-3 -1279 -3
-1320 -19 -1320 -8 0 -15 7 -15 16 0 13 -2 13 -17 -2 -17 -16 -18 -16 -24 7
-5 17 -8 8 -10 -31 -8 -160 -17 311 -18 940 l-1 715 -153 102 c-307 205 -374
253 -353 253 4 0 51 -23 105 -51z m-1339 -884 c0 -66 -4 -126 -8 -132 -8 -13
-169 -103 -184 -103 -4 0 -8 63 -8 139 l0 139 73 37 c39 21 81 44 92 51 30 21
35 2 35 -131z m-322 -166 l-3 -124 -97 -49 c-54 -27 -100 -48 -102 -45 -3 3
-6 61 -7 129 l-2 125 99 51 c54 29 103 49 107 45 4 -4 6 -64 5 -132z m312
-367 l0 -138 -90 -45 c-50 -25 -93 -43 -95 -39 -2 3 -7 60 -11 126 -7 127 0
164 34 165 9 0 46 15 82 34 36 18 68 34 73 34 4 1 7 -61 7 -137z m-312 -103
c2 -41 1 -101 -3 -135 l-6 -61 -92 -46 c-51 -26 -96 -47 -100 -47 -4 0 -7 62
-7 138 l0 138 93 46 c50 25 97 44 102 43 6 -1 11 -35 13 -76z m316 -315 c3 -9
6 -69 6 -135 l0 -119 -92 -45 c-51 -25 -96 -45 -100 -45 -4 0 -8 60 -8 133 0
135 5 157 40 157 8 0 40 16 70 35 60 39 75 42 84 19z m-316 -276 l-3 -133 -72
-36 c-39 -20 -83 -43 -96 -52 -14 -9 -27 -13 -31 -10 -3 4 -6 66 -6 139 l0
132 88 44 c130 67 123 72 120 -84z m312 -317 c0 -43 3 -105 6 -138 l7 -61 -92
-46 c-50 -25 -95 -46 -100 -46 -14 0 -22 126 -13 208 l7 74 50 21 c28 11 66
31 85 43 19 13 38 23 43 23 4 1 7 -34 7 -78z m-312 -207 c1 -71 -1 -134 -5
-140 -10 -12 -191 -99 -197 -93 -2 2 -7 61 -11 130 -5 100 -4 129 7 139 19 18
181 98 193 95 6 -1 11 -55 13 -131z"/>
<path d="M3314 3785 c0 -55 1 -76 3 -47 2 29 2 74 0 100 -2 26 -3 2 -3 -53z"/>
<path d="M3278 3713 c7 -3 16 -2 19 1 4 3 -2 6 -13 5 -11 0 -14 -3 -6 -6z"/>
<path d="M7720 3678 c0 -5 7 -24 15 -41 8 -18 25 -61 37 -96 22 -61 25 -64 73
-83 251 -96 537 -281 722 -467 93 -92 133 -150 196 -281 64 -133 84 -236 67
-350 -29 -197 -116 -357 -287 -520 l-78 -76 25 -49 c14 -28 40 -84 59 -125 18
-41 44 -97 56 -125 13 -27 60 -132 105 -232 52 -115 87 -180 94 -176 6 4 61
40 121 81 323 219 553 487 635 741 26 79 50 213 50 280 0 209 -107 454 -280
645 -208 229 -588 486 -955 645 -27 12 -59 26 -70 31 -49 23 -275 110 -285
110 -6 0 -18 4 -28 9 -19 11 -176 64 -234 79 -26 7 -38 7 -38 0z"/>
<path d="M5725 3576 c-16 -7 -55 -25 -85 -39 -30 -14 -107 -49 -170 -77 -141
-64 -221 -101 -322 -147 l-78 -36 0 -1180 0 -1179 25 6 c14 4 63 14 108 22
169 32 163 31 397 84 52 12 109 25 125 29 l30 7 3 1247 c2 687 2 1254 0 1262
-2 11 -8 11 -33 1z"/>
<path d="M3135 3377 l0 -109 93 -38 92 -39 0 104 0 105 -47 21 c-27 12 -68 31
-93 43 l-45 22 0 -109z"/>
<path d="M3462 3238 l3 -111 35 -12 c19 -7 59 -24 89 -39 30 -14 59 -26 64
-26 10 0 4 206 -6 216 -6 6 -177 84 -184 84 -2 0 -2 -50 -1 -112z"/>
<path d="M3130 2878 l1 -113 82 -33 c45 -18 88 -36 95 -39 9 -4 12 20 12 104
l0 108 -87 43 c-49 23 -91 42 -95 42 -5 0 -8 -51 -8 -112z"/>
<path d="M3460 2740 l0 -110 28 -11 c27 -10 120 -53 155 -71 16 -8 17 0 17
104 l0 113 -48 19 c-26 11 -69 30 -96 43 -28 12 -51 23 -53 23 -2 0 -3 -50 -3
-110z"/>
<path d="M1425 2695 c-77 -47 -167 -105 -200 -130 -33 -25 -76 -56 -96 -69
-20 -13 -42 -30 -50 -38 -8 -7 -30 -26 -49 -42 -205 -167 -386 -369 -496 -552
-81 -136 -118 -238 -139 -394 -17 -125 -18 -137 -6 -124 5 5 14 39 20 76 58
345 408 721 1004 1083 59 36 111 65 115 65 4 1 17 9 30 19 20 17 22 28 22 105
0 47 -3 86 -7 86 -5 0 -71 -38 -148 -85z"/>
<path d="M5896 2255 c3 -176 7 -356 9 -400 2 -44 7 -232 11 -418 6 -307 8
-338 23 -332 9 4 66 20 126 35 243 65 403 108 462 126 l63 19 -1 135 c-1 286
-27 1006 -37 1035 -10 28 -10 27 -11 -20 -1 -41 -4 -51 -18 -52 -10 0 -55 -4
-100 -8 -55 -5 -97 -4 -130 5 -26 6 -112 14 -191 16 -185 6 -189 7 -197 81
-13 117 -14 92 -9 -222z"/>
<path d="M3130 2375 c0 -94 3 -115 15 -115 8 0 51 -18 95 -39 l80 -39 0 109 0
109 -67 31 c-38 17 -80 38 -95 45 l-28 15 0 -116z"/>
<path d="M3450 2242 l0 -108 94 -37 c52 -20 99 -37 105 -37 8 0 10 34 7 107
l-4 106 -34 17 c-43 20 -147 60 -159 60 -5 0 -9 -49 -9 -108z"/>
<path d="M8017 1516 c-48 -37 -499 -230 -714 -306 -234 -83 -550 -184 -753
-242 -58 -16 -127 -35 -155 -43 -27 -8 -169 -44 -315 -80 -146 -36 -292 -72
-325 -80 -33 -9 -82 -19 -110 -25 -27 -5 -81 -16 -120 -25 -117 -26 -324 -65
-565 -106 -620 -106 -965 -147 -1630 -195 -620 -44 -1387 -20 -1875 60 -49 8
-119 20 -155 25 -36 6 -81 15 -100 20 -19 6 -80 20 -135 32 -264 57 -586 178
-707 265 -27 19 -48 30 -48 26 0 -10 113 -94 201 -149 143 -89 334 -180 489
-233 14 -5 50 -18 80 -30 88 -34 291 -100 306 -100 8 0 22 -4 32 -9 27 -15
318 -83 517 -121 61 -12 119 -23 130 -26 108 -26 569 -85 865 -109 383 -32
447 -35 920 -41 622 -8 960 8 1560 70 139 14 408 48 535 66 210 32 409 64 524
85 159 29 643 140 786 179 179 50 213 60 360 104 200 60 512 180 707 272 l68
32 -14 31 c-29 70 -330 667 -335 667 -3 0 -14 -7 -24 -14z"/>
</g>
</svg>
